<svg xmlns="http://www.w3.org/2000/svg" xmlns:xlink="http://www.w3.org/1999/xlink" width="498" height="187" viewBox="0 0 498 187"><defs><clipPath id="b"><rect width="498" height="187"/></clipPath></defs><g id="a" clip-path="url(#b)"><g transform="translate(9.813 7.664)"><g transform="translate(-0.001 0.001)"><path d="M25.957,82.464s1.577-2.25,6.479-2.594,60.923,1.037,72.477,1.208,21.71,1.386,27.486.695,18.208-5.537,18.208-15.914S141.152,51.5,135.025,50.977,92.482,49.419,74.1,49.072a431.068,431.068,0,0,0-45.167,1.213C17.86,51.268,1.8,55.825.222,66.55-1.412,77.665,6.35,80.906,10.552,82.29c10.188,3.354,15.405.174,15.405.174" transform="translate(0.001 6.99)" fill="#184f83" stroke="rgba(0,0,0,0)" stroke-miterlimit="10" stroke-width="1"/><path d="M129.3,110.995a17.852,17.852,0,0,1-6.254-4.185,19.155,19.155,0,0,1-4.062-6.409,21.934,21.934,0,0,1-1.455-8.124,21.662,21.662,0,0,1,1.455-8.09,19.341,19.341,0,0,1,4.062-6.389,18.193,18.193,0,0,1,6.254-4.209,21.852,21.852,0,0,1,16.061,0,18.332,18.332,0,0,1,6.256,4.209,19.231,19.231,0,0,1,4.062,6.389,21.94,21.94,0,0,1,1.455,8.09,22.217,22.217,0,0,1-1.455,8.124,19.048,19.048,0,0,1-4.062,6.409,17.986,17.986,0,0,1-6.256,4.185,22.273,22.273,0,0,1-16.061,0Zm1.3-34.368a15.108,15.108,0,0,0-5.116,3.585,15.908,15.908,0,0,0-3.249,5.383,20.295,20.295,0,0,0,0,13.363,15.925,15.925,0,0,0,3.249,5.38,15.03,15.03,0,0,0,5.116,3.592,18.054,18.054,0,0,0,13.463,0,14.968,14.968,0,0,0,5.121-3.592,15.918,15.918,0,0,0,3.258-5.38,20.412,20.412,0,0,0,0-13.363,15.9,15.9,0,0,0-3.258-5.383,15.045,15.045,0,0,0-5.121-3.585,17.922,17.922,0,0,0-13.463,0Zm124.354,34.9V73.041h3.578V108.26h17.845v3.262Zm-253.187,0V73.041H5.335V108.26H23.2v3.262Zm237-.007-4.178-10.222H214.3l-4.333,10.222h-3.739l16.735-38.48h3.673l16.128,38.48ZM215.7,98.045h17.59l-8.657-21.091Zm-24.117,13.47L180.812,93.251h-6.657v18.264H170.59V73.034h10.055c.511,0,1.2.028,2.07.065a19.893,19.893,0,0,1,2.81.32,18.022,18.022,0,0,1,3.086.864,8.816,8.816,0,0,1,2.805,1.743,8.964,8.964,0,0,1,2.061,2.883,9.982,9.982,0,0,1,.806,4.236,9.8,9.8,0,0,1-.939,4.574,8.9,8.9,0,0,1-2.383,2.9,9.972,9.972,0,0,1-3.162,1.66,19,19,0,0,1-3.306.754l11.15,18.484ZM174.155,90h7.58a12.3,12.3,0,0,0,4.565-.72,7.333,7.333,0,0,0,2.736-1.739,5.441,5.441,0,0,0,1.333-2.225,6.772,6.772,0,0,0,0-4.346,5.508,5.508,0,0,0-1.333-2.225,7.424,7.424,0,0,0-2.736-1.743,12.483,12.483,0,0,0-4.565-.7h-7.58ZM80.678,111.515V73.034H91.727a28.044,28.044,0,0,1,4.384.358,10.4,10.4,0,0,1,3.971,1.464,8.458,8.458,0,0,1,2.869,3.093,10.679,10.679,0,0,1,1.112,5.249,7.925,7.925,0,0,1-1.736,5.108,8.433,8.433,0,0,1-5.135,2.883v.11a10.058,10.058,0,0,1,3.461.9,8.562,8.562,0,0,1,2.7,1.946,8.677,8.677,0,0,1,1.763,2.914,10.523,10.523,0,0,1,.622,3.7,10.376,10.376,0,0,1-1.266,5.407,9.689,9.689,0,0,1-3.2,3.282,12.233,12.233,0,0,1-4.162,1.632,21.72,21.72,0,0,1-4.2.441Zm3.577-3.265h8.174a14.034,14.034,0,0,0,5.064-.761,7.752,7.752,0,0,0,2.948-1.894,6.075,6.075,0,0,0,1.374-2.428,8.957,8.957,0,0,0,.358-2.308,7.593,7.593,0,0,0-.818-3.637,7.156,7.156,0,0,0-2.113-2.476,8.51,8.51,0,0,0-2.952-1.385,13.432,13.432,0,0,0-3.32-.434H84.255Zm0-18.591h7.42a12.425,12.425,0,0,0,4.486-.665,7.94,7.94,0,0,0,2.707-1.663,4.853,4.853,0,0,0,1.295-2.087,7.293,7.293,0,0,0,.331-2.046A7.177,7.177,0,0,0,99.8,79.86a5.5,5.5,0,0,0-1.8-2.122,7.3,7.3,0,0,0-2.655-1.112,15.385,15.385,0,0,0-3.191-.324h-7.9Zm-18.4,21.856-4.171-10.222H41.392l-4.339,10.222h-3.73l16.726-38.48H53.73l16.127,38.48ZM42.8,98.045H60.381l-8.65-21.091ZM184.626,55.759a16.709,16.709,0,0,1-6.191-4.963,19.34,19.34,0,0,1-3.375-7.119,34.591,34.591,0,0,1-1.009-8.438V1.391h5.108V33.91a37.681,37.681,0,0,0,.549,6.275,18.879,18.879,0,0,0,2.128,6.2,13.134,13.134,0,0,0,4.486,4.725,16.934,16.934,0,0,0,15.417,0,13.143,13.143,0,0,0,4.484-4.725,18.854,18.854,0,0,0,2.137-6.2,39.317,39.317,0,0,0,.534-6.275V1.391h5.114V35.239a35.277,35.277,0,0,1-1,8.438,19.237,19.237,0,0,1-3.379,7.119,16.806,16.806,0,0,1-6.191,4.963,24.714,24.714,0,0,1-18.811,0Zm-176.8-.038A18.311,18.311,0,0,1,0,49.329l4.872-3.258A13.126,13.126,0,0,0,10.1,51.265a15.352,15.352,0,0,0,7.317,1.7,14.743,14.743,0,0,0,4.806-.765,12.235,12.235,0,0,0,3.9-2.173,10.41,10.41,0,0,0,2.642-3.372,10.052,10.052,0,0,0,.961-4.45,8.617,8.617,0,0,0-1.2-4.729,9.432,9.432,0,0,0-3.213-3.048,23.24,23.24,0,0,0-4.531-2.063c-1.674-.565-3.408-1.13-5.178-1.691a54.789,54.789,0,0,1-5.188-1.953A16.754,16.754,0,0,1,5.891,25.9a12.379,12.379,0,0,1-3.22-4.374,15.542,15.542,0,0,1-1.207-6.506A14.042,14.042,0,0,1,2.905,8.555,13.737,13.737,0,0,1,6.783,3.83,17.169,17.169,0,0,1,12.388.968,22.753,22.753,0,0,1,19.046,0a21.538,21.538,0,0,1,8.328,1.591,15.816,15.816,0,0,1,6.621,5.3l-4.41,3.175A13,13,0,0,0,25.054,6a13.191,13.191,0,0,0-6.161-1.354,16.731,16.731,0,0,0-4.718.654,11.845,11.845,0,0,0-3.916,1.939,9.628,9.628,0,0,0-2.669,3.2,9.914,9.914,0,0,0-1,4.574,8.844,8.844,0,0,0,2.085,6.316,14.675,14.675,0,0,0,5.23,3.489,56.415,56.415,0,0,0,6.812,2.249,32.911,32.911,0,0,1,6.812,2.586,14.887,14.887,0,0,1,5.231,4.529q2.1,2.924,2.092,8.021a14.817,14.817,0,0,1-1.4,6.578,14.3,14.3,0,0,1-3.761,4.839,16.144,16.144,0,0,1-5.45,2.993,21.125,21.125,0,0,1-6.425,1A25.734,25.734,0,0,1,7.823,55.721Zm224.085.5V1.391h16.96a36.582,36.582,0,0,1,12.073,1.743,26.461,26.461,0,0,1,8.24,4.457,21.915,21.915,0,0,1,5.2,6,29.228,29.228,0,0,1,2.788,6.3,28.352,28.352,0,0,1,1.118,5.473q.245,2.438.243,3.447c0,.672-.079,1.815-.243,3.447a28.13,28.13,0,0,1-1.118,5.459,29.242,29.242,0,0,1-2.788,6.313,22.117,22.117,0,0,1-5.2,6,26.891,26.891,0,0,1-8.24,4.457,36.594,36.594,0,0,1-12.073,1.736Zm5.106-4.639h10.53a36.82,36.82,0,0,0,10.15-1.36,22.866,22.866,0,0,0,8.2-4.15,19.583,19.583,0,0,0,5.51-7.084,24.016,24.016,0,0,0,2-10.177,24.054,24.054,0,0,0-2-10.187,19.743,19.743,0,0,0-5.51-7.088,23.421,23.421,0,0,0-8.2-4.143,36.561,36.561,0,0,0-10.15-1.36h-10.53ZM97.273,56.221,91.31,41.659H62.27l-6.2,14.561H50.738L74.656,1.391h5.276L103,56.221ZM64.288,37.013H89.461L77.064,6.967Zm59.546,19.2V1.391h5.109V51.575H154.5v4.639Z" transform="translate(174.346 32.208)" fill="#184f83" stroke="rgba(0,0,0,0)" stroke-miterlimit="10" stroke-width="1"/><path d="M10.463,136.5C6.134,128.376.6,110.033.09,89.452S1.3,59.7,5.79,39.8,13.4,11.431,16.683,7.287A20.028,20.028,0,0,1,37.449.713c6.983,1.839,12.624,8.992,10.544,16.948S42.77,33.744,40.389,46.2c-2.251,11.765-4.5,31.492-3.458,44.29s3.632,20.926,6.738,27.673,7.27,10.553,4.324,18.167-6.909,13.363-17.293,14.7a22.806,22.806,0,0,1-2.933.2C17.935,151.228,14.417,143.937,10.463,136.5ZM346.891,19.8a11.016,11.016,0,0,1-3.365-8.1A11.708,11.708,0,0,1,345.059,5.8a11.065,11.065,0,0,1,4.2-4.24A11.224,11.224,0,0,1,354.979.034a11.409,11.409,0,0,1,8.369,3.33,11.132,11.132,0,0,1,3.368,8.214,11.154,11.154,0,0,1-3.361,8.207,11.769,11.769,0,0,1-16.464.014ZM350.444,3.44a9.113,9.113,0,0,0-3.415,3.437,9.5,9.5,0,0,0-1.231,4.811,8.983,8.983,0,0,0,2.719,6.616,8.987,8.987,0,0,0,6.564,2.71,9.4,9.4,0,0,0,4.734-1.243,8.858,8.858,0,0,0,3.408-3.41,9.6,9.6,0,0,0,1.216-4.791,9.335,9.335,0,0,0-1.216-4.732,9.108,9.108,0,0,0-3.444-3.4,9.4,9.4,0,0,0-4.7-1.267A9.208,9.208,0,0,0,350.444,3.44ZM284.952,19.3a11.667,11.667,0,0,1-2.8-7.842,10.964,10.964,0,0,1,3.392-8.135,11.7,11.7,0,0,1,8.5-3.293,12.54,12.54,0,0,1,5.569,1.216,10.792,10.792,0,0,1,4.064,3.413L301.946,6a9.545,9.545,0,0,0-3.453-2.841,10.274,10.274,0,0,0-4.426-.968,9.748,9.748,0,0,0-4.878,1.274,9.066,9.066,0,0,0-3.468,3.385,9.427,9.427,0,0,0-1.243,4.808,9,9,0,0,0,2.769,6.719,9.587,9.587,0,0,0,6.96,2.686,9.807,9.807,0,0,0,7.739-3.613l1.734,1.316a11.075,11.075,0,0,1-4.109,3.241,12.9,12.9,0,0,1-5.5,1.14A11.431,11.431,0,0,1,284.952,19.3Zm-93.566.5a11.03,11.03,0,0,1-3.365-8.1A11.662,11.662,0,0,1,189.56,5.8,11.323,11.323,0,0,1,199.483.034a11.34,11.34,0,0,1,8.36,3.33,11.14,11.14,0,0,1,3.385,8.214,11.2,11.2,0,0,1-3.365,8.207,11.786,11.786,0,0,1-16.478.014ZM194.94,3.44a9.212,9.212,0,0,0-3.415,3.437,9.571,9.571,0,0,0-1.231,4.811,8.964,8.964,0,0,0,2.735,6.616,8.939,8.939,0,0,0,6.551,2.71,9.483,9.483,0,0,0,4.746-1.243,8.749,8.749,0,0,0,3.392-3.41,9.446,9.446,0,0,0,1.223-4.791,9.187,9.187,0,0,0-1.223-4.732,9,9,0,0,0-3.437-3.4,9.42,9.42,0,0,0-4.7-1.267A9.21,9.21,0,0,0,194.94,3.44ZM98.1,19.8a11,11,0,0,1-3.372-8.1A11.732,11.732,0,0,1,96.265,5.8,11.317,11.317,0,0,1,106.172.034a11.427,11.427,0,0,1,8.383,3.33,11.119,11.119,0,0,1,3.361,8.214,11.168,11.168,0,0,1-3.354,8.207A11.769,11.769,0,0,1,98.1,19.8ZM101.651,3.44a9.04,9.04,0,0,0-3.415,3.437A9.42,9.42,0,0,0,97,11.689,8.937,8.937,0,0,0,99.723,18.3a8.977,8.977,0,0,0,6.557,2.71,9.424,9.424,0,0,0,4.742-1.243,8.894,8.894,0,0,0,3.4-3.41,9.382,9.382,0,0,0,1.23-4.791,9.18,9.18,0,0,0-4.66-8.131,9.467,9.467,0,0,0-4.711-1.267A9.154,9.154,0,0,0,101.651,3.44ZM67.256,19.3a11.621,11.621,0,0,1-2.783-7.842,10.926,10.926,0,0,1,3.379-8.135A11.663,11.663,0,0,1,76.35.034,12.471,12.471,0,0,1,81.91,1.25a10.816,10.816,0,0,1,4.067,3.413L84.247,6A9.59,9.59,0,0,0,80.8,3.161a10.3,10.3,0,0,0-4.417-.968,9.761,9.761,0,0,0-4.892,1.274,9.092,9.092,0,0,0-3.482,3.385,9.465,9.465,0,0,0-1.223,4.808,9.04,9.04,0,0,0,2.754,6.719,9.612,9.612,0,0,0,6.976,2.686,9.8,9.8,0,0,0,7.728-3.613l1.731,1.316a11.219,11.219,0,0,1-4.1,3.241,12.957,12.957,0,0,1-5.49,1.14A11.458,11.458,0,0,1,67.256,19.3Zm327.122,3.3L379.838,5.93V22.6h-2.261V.582h.475L392.7,17.464V.582h2.17V22.6Zm-71.46,0V.589h2.2V22.6Zm-52.868,0-3.458-7.239h-9.5L253.675,22.6h-2.456L261.623.582h.536L272.417,22.6Zm-11.944-9.371h7.525l-3.744-7.959ZM235.048,22.6l-7.906-10.229h-1.261V22.6h-2.2V.582h4.388a26,26,0,0,1,4.97.307A5.61,5.61,0,0,1,236.22,2.81a5.434,5.434,0,0,1,1.231,3.633,5.881,5.881,0,0,1-.851,3.165,5.282,5.282,0,0,1-2.409,2.053,10.992,10.992,0,0,1-4.346.709L237.76,22.6Zm-9.166-12.378,3.8.024a9.2,9.2,0,0,0,3.26-.42,3.33,3.33,0,0,0,1.65-1.336,3.753,3.753,0,0,0,.592-2.056,3.7,3.7,0,0,0-.592-2.018A3.5,3.5,0,0,0,233,3.117a9.891,9.891,0,0,0-3.231-.382h-3.892ZM161.645,22.6V.582h4.388a26.906,26.906,0,0,1,5.087.32,5.746,5.746,0,0,1,3.086,1.915,5.487,5.487,0,0,1,1.2,3.633,5.5,5.5,0,0,1-1.181,3.627A5.654,5.654,0,0,1,171.009,12a27.207,27.207,0,0,1-5.6.369h-1.564V22.6Zm2.2-12.4,3.723.045a9.815,9.815,0,0,0,3.3-.4,3.481,3.481,0,0,0,1.65-1.333,3.765,3.765,0,0,0,0-4.081,3.431,3.431,0,0,0-1.576-1.312,9.87,9.87,0,0,0-3.208-.382h-3.893Zm-22.1,12.4-7.914-10.229h-1.254V22.6h-2.19V.582h4.383a26.133,26.133,0,0,1,4.968.307,5.633,5.633,0,0,1,3.186,1.922,5.511,5.511,0,0,1,1.226,3.633,5.934,5.934,0,0,1-.837,3.165,5.435,5.435,0,0,1-2.426,2.053,10.953,10.953,0,0,1-4.336.709L144.462,22.6Zm-9.168-12.378,3.8.024a9.237,9.237,0,0,0,3.263-.42,3.292,3.292,0,0,0,1.646-1.336,3.671,3.671,0,0,0,.6-2.056,3.621,3.621,0,0,0-.6-2.018,3.5,3.5,0,0,0-1.581-1.3,9.852,9.852,0,0,0-3.232-.382h-3.892Z" transform="translate(56.428 0)" fill="#ff3600" stroke="rgba(0,0,0,0)" stroke-miterlimit="10" stroke-width="1"/><path d="M131,8.658C131,3.8,134.331,0,139.255,0a8.832,8.832,0,0,1,4.105.882V2.655a8,8,0,0,0-4.083-1.037c-3.806,0-6.308,3.079-6.308,6.916,0,4.061,2.349,6.871,6.141,6.871a8.194,8.194,0,0,0,3.95-1.037l.5,1.481a9.615,9.615,0,0,1-4.639,1.168C133.953,17.017,131,13.539,131,8.658Zm-27.766,0C103.233,3.8,106.567,0,111.482,0A8.948,8.948,0,0,1,115.6.882V2.655a8.049,8.049,0,0,0-4.09-1.037c-3.807,0-6.3,3.079-6.3,6.916,0,4.061,2.335,6.871,6.125,6.871a8.214,8.214,0,0,0,3.961-1.037l.511,1.481a9.678,9.678,0,0,1-4.646,1.168C106.187,17.017,103.233,13.539,103.233,8.658Zm-14.89,0C88.343,3.8,91.668,0,96.59,0A8.855,8.855,0,0,1,100.7.882V2.655a8.034,8.034,0,0,0-4.085-1.037c-3.814,0-6.3,3.079-6.3,6.916,0,4.061,2.34,6.871,6.125,6.871a8.237,8.237,0,0,0,3.968-1.037l.5,1.481a9.674,9.674,0,0,1-4.646,1.168C91.3,17.017,88.343,13.539,88.343,8.658Zm-18.124,7.1.789-1.464a6.676,6.676,0,0,0,3.608,1.109c1.786,0,3.356-.73,3.356-2.707,0-3.988-7.322-3.506-7.322-8.472C70.649,1.87,72.442,0,75.542,0A8.558,8.558,0,0,1,79.16.761V2.5A7.333,7.333,0,0,0,75.6,1.591c-1.486,0-3.012.665-3.012,2.449,0,3.757,7.322,3.365,7.322,8.541,0,2.772-2.144,4.436-5.324,4.436A7.775,7.775,0,0,1,70.219,15.76ZM51.313,8.534c0-5.046,3.43-8.534,8.1-8.534,4.718,0,8.1,3.561,8.1,8.534,0,5.2-3.551,8.483-8.1,8.483C54.777,17.017,51.313,13.683,51.313,8.534Zm1.97,0c0,4.112,2.423,6.871,6.134,6.871s6.136-2.759,6.136-6.871c0-3.909-2.2-6.916-6.136-6.916C55.706,1.619,53.283,4.419,53.283,8.534Zm-40.864,0C12.419,3.489,15.856,0,20.53,0c4.711,0,8.088,3.561,8.088,8.534,0,5.2-3.558,8.483-8.088,8.483C15.87,17.017,12.419,13.683,12.419,8.534Zm1.977,0c0,4.112,2.416,6.871,6.134,6.871s6.127-2.759,6.127-6.871c0-3.909-2.194-6.916-6.127-6.916C16.812,1.619,14.4,4.419,14.4,8.534ZM0,15.76.787,14.3A6.693,6.693,0,0,0,4.4,15.405c1.789,0,3.356-.73,3.356-2.707C7.753,8.71.429,9.192.429,4.226.429,1.87,2.225,0,5.331,0a8.516,8.516,0,0,1,3.6.761V2.5a7.292,7.292,0,0,0-3.558-.913c-1.49,0-3,.665-3,2.449,0,3.757,7.32,3.365,7.32,8.541,0,2.772-2.144,4.436-5.33,4.436A7.757,7.757,0,0,1,0,15.76Zm126.179,1V9.351c0-1.794-.455-3.165-2.144-3.165a5.963,5.963,0,0,0-3.692,1.794v8.782H118.5V.11h1.846V6.337a6.528,6.528,0,0,1,4.141-1.815c1.875,0,3.537,1.192,3.537,4.188v8.052Zm-80.27,0V6.093c0-.861,0-1.949.052-2.831h-.052c-.35.678-.851,1.508-1.188,2.022l-4.114,6.554h-.983L35.162,5.156a14.815,14.815,0,0,1-1.133-1.843H33.97c.059.778.059,1.939.059,2.748v10.7H32.155V.131H33.9l4.639,6.988c.715,1.064,1.138,1.722,1.546,2.4h.043c.408-.678.89-1.436,1.546-2.493L46.042.131h1.741V16.762Z" transform="translate(307.69 154.653)" fill="#849cbd" stroke="rgba(0,0,0,0)" stroke-miterlimit="10" stroke-width="1"/><path d="M67.05,49.071q-8.084-.153-15.3-.088a143.8,143.8,0,0,0-2.338,31.1c12.175.227,26.459.543,36.728.759-.413-9.248.576-21.215,1.954-31.283-7.791-.208-15.3-.382-21.041-.493" transform="translate(7.053 6.99)" fill="#490f00"/></g></g></g></svg>